<svg xmlns="http://www.w3.org/2000/svg" xmlns:xlink="http://www.w3.org/1999/xlink" width="396" zoomAndPan="magnify" viewBox="0 0 297 296.999993" height="396" preserveAspectRatio="xMidYMid meet" version="1.0"><defs><clipPath id="fc57264728"><path d="M 95 8.722656 L 155 8.722656 L 155 149 L 95 149 Z M 95 8.722656 " clip-rule="nonzero"/></clipPath><clipPath id="a8bde49ea8"><path d="M 144 148 L 204 148 L 204 288.472656 L 144 288.472656 Z M 144 148 " clip-rule="nonzero"/></clipPath></defs><path fill="#f06323" d="M 0.140625 142.875 C 21.984375 127.410156 48.992188 119.375 75.742188 120.386719 C 102.488281 121.394531 128.8125 131.441406 149.433594 148.507812 C 102.605469 169.625 44.941406 168.003906 0.140625 142.875 " fill-opacity="1" fill-rule="nonzero"/><g clip-path="url(#fc57264728)"><path fill="#f06323" d="M 96.679688 8.730469 C 119.410156 22.863281 137.296875 44.636719 146.75 69.679688 C 156.199219 94.71875 157.160156 122.882812 149.433594 148.507812 C 111.796875 113.546875 90.914062 59.773438 96.679688 8.730469 " fill-opacity="1" fill-rule="nonzero"/></g><path fill="#f06323" d="M 244.109375 32.933594 C 243.234375 59.6875 233.320312 86.0625 216.359375 106.769531 C 199.398438 127.472656 175.492188 142.386719 149.433594 148.507812 C 160.894531 98.433594 197.019531 53.460938 244.109375 32.933594 " fill-opacity="1" fill-rule="nonzero"/><path fill="#f06323" d="M 296.859375 172.710938 C 273.253906 185.332031 245.457031 189.933594 219.042969 185.597656 C 192.632812 181.261719 167.761719 168.011719 149.433594 148.507812 C 198.527344 133.394531 255.539062 142.195312 296.859375 172.710938 " fill-opacity="1" fill-rule="nonzero"/><g clip-path="url(#a8bde49ea8)"><path fill="#f06323" d="M 202.1875 288.285156 C 179.457031 274.152344 161.570312 252.378906 152.117188 227.339844 C 142.667969 202.296875 141.707031 174.136719 149.433594 148.507812 C 187.066406 183.46875 207.953125 237.242188 202.1875 288.285156 " fill-opacity="1" fill-rule="nonzero"/></g><path fill="#f06323" d="M 54.761719 264.082031 C 55.632812 237.332031 65.542969 210.953125 82.507812 190.246094 C 99.46875 169.542969 123.378906 154.628906 149.433594 148.507812 C 137.972656 198.582031 101.847656 243.554688 54.761719 264.082031 " fill-opacity="1" fill-rule="nonzero"/></svg>