<svg xmlns="http://www.w3.org/2000/svg" xmlns:xlink="http://www.w3.org/1999/xlink" width="396" zoomAndPan="magnify" viewBox="0 0 297 296.999993" height="396" preserveAspectRatio="xMidYMid meet" version="1.0"><path fill="#9a2546" d="M 137.035156 219.652344 C 130.308594 204.167969 120.316406 174.027344 130.132812 141.84375 C 146.238281 89.039062 209.421875 51.175781 285.464844 56.082031 C 295.5625 120.5 270.679688 180.851562 223.789062 207.777344 C 192.207031 225.914062 159.488281 223.804688 143.996094 221.640625 C 159.859375 209.613281 177.667969 194.164062 195.472656 174.605469 C 222.949219 144.414062 241.292969 114.457031 253.429688 90.554688 C 235.992188 114.882812 215.035156 141.160156 189.996094 168.007812 C 171.929688 187.382812 154.082031 204.539062 137.035156 219.652344 Z M 137.035156 219.652344 " fill-opacity="1" fill-rule="nonzero"/><path fill="#9a2546" d="M 116.761719 221.332031 C 104.898438 224.921875 82.058594 229.640625 59.417969 219.738281 C 22.269531 203.492188 0.0351562 154.175781 10.09375 99.121094 C 57.945312 97.246094 99.847656 120.539062 115.492188 157.035156 C 126.03125 181.621094 121.703125 205.304688 118.804688 216.425781 C 111.386719 203.828125 101.632812 189.523438 88.882812 174.867188 C 69.203125 152.253906 48.914062 136.320312 32.511719 125.425781 C 48.769531 140.222656 66.152344 157.746094 83.605469 178.300781 C 96.199219 193.132812 107.191406 207.609375 116.761719 221.332031 Z M 116.761719 221.332031 " fill-opacity="1" fill-rule="nonzero"/></svg>