<svg xmlns="http://www.w3.org/2000/svg" xmlns:xlink="http://www.w3.org/1999/xlink" width="396" zoomAndPan="magnify" viewBox="0 0 297 296.999993" height="396" preserveAspectRatio="xMidYMid meet" version="1.0"><defs><clipPath id="c9676350a6"><path d="M 141 226 L 272.578125 226 L 272.578125 291 L 141 291 Z M 141 226 " clip-rule="nonzero"/></clipPath><clipPath id="2f1726f66a"><path d="M 121 4.742188 L 240 4.742188 L 240 273 L 121 273 Z M 121 4.742188 " clip-rule="nonzero"/></clipPath></defs><g clip-path="url(#c9676350a6)"><path fill="#9a2546" d="M 141.710938 290.386719 C 153.6875 267.441406 173.382812 248.613281 196.84375 237.683594 C 220.308594 226.753906 247.390625 223.785156 272.664062 229.375 C 241.6875 268.203125 191.347656 292.246094 141.710938 290.386719 " fill-opacity="1" fill-rule="nonzero"/></g><path fill="#9a2546" d="M 101.910156 273.609375 C 115.851562 236.25 117.128906 194.289062 105.480469 156.152344 C 93.832031 118.011719 69.328125 83.925781 36.886719 60.734375 C 24.324219 136.226562 48.640625 218.660156 101.910156 273.609375 " fill-opacity="1" fill-rule="nonzero"/><g clip-path="url(#2f1726f66a)"><path fill="#9a2546" d="M 130.203125 272.503906 C 116.46875 222.59375 119.644531 168.191406 139.09375 120.21875 C 158.542969 72.246094 194.148438 30.988281 238.761719 4.734375 C 246.320312 103.789062 205.398438 207.578125 130.203125 272.503906 " fill-opacity="1" fill-rule="nonzero"/></g></svg>