<svg xmlns="http://www.w3.org/2000/svg" xmlns:xlink="http://www.w3.org/1999/xlink" width="396" zoomAndPan="magnify" viewBox="0 0 297 296.999993" height="396" preserveAspectRatio="xMidYMid meet" version="1.0"><defs><clipPath id="b96162312a"><path d="M 7.691406 15.484375 L 290 15.484375 L 290 281.515625 L 7.691406 281.515625 Z M 7.691406 15.484375 " clip-rule="nonzero"/></clipPath><clipPath id="534223dd9c"><path d="M 148.5 15.484375 C 70.734375 15.484375 7.691406 75.039062 7.691406 148.5 C 7.691406 221.960938 70.734375 281.515625 148.5 281.515625 C 226.265625 281.515625 289.308594 221.960938 289.308594 148.5 C 289.308594 75.039062 226.265625 15.484375 148.5 15.484375 Z M 148.5 15.484375 " clip-rule="nonzero"/></clipPath><clipPath id="49ab94f8d1"><path d="M 69 93.171875 L 228.535156 93.171875 L 228.535156 204 L 69 204 Z M 69 93.171875 " clip-rule="nonzero"/></clipPath><clipPath id="6a038d8dc7"><path d="M 175.304688 53 L 280 53 L 280 254.253906 L 175.304688 254.253906 Z M 175.304688 53 " clip-rule="nonzero"/></clipPath><clipPath id="12d2674217"><path d="M 14 53 L 119 53 L 119 254.253906 L 14 254.253906 Z M 14 53 " clip-rule="nonzero"/></clipPath></defs><g clip-path="url(#b96162312a)"><g clip-path="url(#534223dd9c)"><path fill="#9a2546" d="M 7.691406 15.484375 L 289.304688 15.484375 L 289.304688 281.515625 L 7.691406 281.515625 Z M 7.691406 15.484375 " fill-opacity="1" fill-rule="nonzero"/></g></g><path fill="#f06323" d="M 150.222656 158.355469 C 149.21875 158.355469 148.230469 158.199219 147.246094 157.878906 L 101.640625 142.667969 C 100.816406 144.816406 100.402344 147.585938 100.402344 151.625 C 103.378906 153.347656 106.277344 156.8125 106.277344 162.78125 C 106.277344 166.441406 104.449219 169.074219 102.875 170.820312 C 109.640625 178.667969 128.257812 184.3125 150.226562 184.3125 C 177.910156 184.3125 200.339844 175.355469 200.339844 164.324219 C 200.339844 161.886719 200.339844 151.933594 200.339844 142.160156 L 153.183594 157.878906 C 152.214844 158.199219 151.222656 158.355469 150.222656 158.355469 Z M 150.222656 158.355469 " fill-opacity="1" fill-rule="nonzero"/><g clip-path="url(#49ab94f8d1)"><path fill="#f06323" d="M 226.382812 118.902344 L 151.210938 93.84375 C 150.558594 93.632812 149.875 93.632812 149.230469 93.84375 L 74.058594 118.902344 C 72.78125 119.328125 71.917969 120.523438 71.917969 121.871094 C 71.917969 123.21875 72.78125 124.414062 74.058594 124.839844 L 91.292969 130.585938 C 87.328125 135.183594 85.023438 141.667969 84.175781 152.214844 C 81.453125 153.5 79.527344 156.238281 79.527344 159.457031 C 79.527344 162.734375 81.496094 165.519531 84.300781 166.78125 C 81.851562 188.109375 69.082031 195.21875 69.082031 197.042969 C 69.082031 197.96875 78.972656 203.304688 81.320312 203.304688 C 84.953125 203.304688 93.671875 197.144531 93.671875 183.832031 C 93.671875 175.988281 92.964844 170.0625 92.21875 165.859375 C 94.230469 164.398438 95.628906 162.136719 95.628906 159.457031 C 95.628906 156.53125 93.992188 154.089844 91.65625 152.679688 C 92.976562 135.269531 98.359375 132.359375 111.375 126.957031 C 112.679688 126.445312 115.140625 125.449219 116.5625 124.859375 C 119.121094 123.808594 121.429688 122.867188 123.648438 121.976562 C 130.808594 119.132812 136.859375 116.847656 141.476562 115.148438 C 146.53125 113.347656 148.800781 112.6875 148.878906 112.664062 C 150.816406 112.011719 152.972656 113.058594 153.636719 115.03125 C 154.292969 116.996094 153.242188 119.128906 151.265625 119.792969 C 151.117188 119.839844 142.320312 122.355469 119.4375 131.8125 C 117.964844 132.421875 116.5625 132.972656 115.230469 133.496094 C 112.515625 134.570312 110.269531 135.425781 108.382812 136.292969 L 149.230469 149.902344 C 149.558594 150.003906 149.882812 150.058594 150.222656 150.058594 C 150.558594 150.058594 150.886719 150.003906 151.210938 149.898438 L 226.382812 124.839844 C 227.660156 124.414062 228.523438 123.21875 228.523438 121.871094 C 228.523438 120.523438 227.660156 119.328125 226.382812 118.902344 Z M 226.382812 118.902344 " fill-opacity="1" fill-rule="nonzero"/></g><g clip-path="url(#6a038d8dc7)"><path fill="#f06323" d="M 176 252.96875 C 183.269531 251.582031 190.265625 249.214844 196.921875 246.082031 C 196.917969 246.066406 196.910156 246.050781 196.902344 246.03125 C 196.523438 245.933594 196.246094 245.46875 196.554688 245.117188 C 192.703125 234.34375 196.375 222.308594 205.742188 215.550781 C 206.0625 215.320312 206.511719 215.566406 206.613281 215.90625 C 209.742188 226.332031 205.746094 238.09375 197.9375 245.4375 C 197.953125 245.484375 197.972656 245.527344 197.988281 245.570312 C 207.320312 241.039062 215.96875 235.011719 223.730469 228.058594 C 214.996094 221.507812 221.3125 207.382812 225.925781 200.109375 C 226.207031 199.671875 226.855469 199.757812 227.011719 200.253906 C 229.621094 208.542969 231.554688 216.695312 227.503906 224.542969 C 230.582031 221.558594 233.503906 218.4375 236.257812 215.21875 C 237.761719 213.460938 239.21875 211.65625 240.636719 209.804688 C 231.984375 204.980469 234.199219 192.695312 238.261719 185.40625 C 238.488281 185 239.046875 185.046875 239.285156 185.40625 C 242.65625 190.5 246.46875 197.132812 245.25 203.359375 C 247.363281 200.199219 249.328125 196.9375 251.121094 193.585938 C 251.074219 193.480469 251.066406 193.347656 251.128906 193.195312 C 251.335938 192.675781 251.5625 192.164062 251.804688 191.660156 C 243.492188 187.199219 242.46875 178.164062 242.449219 169.578125 C 242.449219 169.136719 242.957031 168.824219 243.34375 169.066406 C 249.996094 173.242188 254.582031 179.714844 254.3125 187.109375 C 257.019531 181.113281 259.152344 174.878906 260.558594 168.484375 C 254.34375 164.761719 248.851562 157.695312 247.214844 150.757812 C 247.105469 150.292969 247.5 149.949219 247.945312 150.03125 C 254.582031 151.195312 259.773438 155.617188 261.777344 161.542969 C 262.234375 158.117188 262.476562 154.65625 262.476562 151.171875 C 262.476562 150.34375 262.457031 149.519531 262.4375 148.691406 C 254.695312 144.53125 245.277344 138.925781 243.578125 129.570312 C 243.515625 129.21875 243.734375 128.789062 244.148438 128.820312 C 251.003906 129.34375 258.753906 133.769531 261.882812 140.246094 C 261.492188 136.503906 260.910156 132.777344 260.152344 129.085938 C 259.984375 129.222656 259.75 129.273438 259.503906 129.132812 C 252.367188 125.050781 243.726562 122.382812 241.207031 113.601562 C 241.105469 113.25 241.390625 112.820312 241.777344 112.847656 C 247.734375 113.277344 254.222656 115.308594 257.828125 119.941406 C 257.832031 119.875 257.839844 119.804688 257.847656 119.734375 C 256.78125 116.035156 255.554688 112.382812 254.171875 108.808594 C 253.933594 108.800781 253.679688 108.648438 253.578125 108.402344 C 249.84375 108.511719 246.445312 107.101562 243.421875 104.882812 C 241.785156 103.679688 240.371094 102.207031 239.089844 100.644531 C 238.222656 99.589844 236.914062 98.25 236.914062 96.839844 C 236.914062 96.523438 237.183594 96.234375 237.507812 96.246094 C 242.847656 96.410156 247.539062 99.324219 251.621094 102.644531 C 249.316406 97.472656 246.601562 92.359375 243.429688 87.558594 C 238.691406 86.976562 232.511719 85.789062 230.195312 81.167969 C 230.027344 80.828125 230.164062 80.40625 230.550781 80.296875 C 233.527344 79.460938 236.472656 80.171875 239.105469 81.59375 C 237.273438 79.289062 235.3125 77.09375 233.21875 75.042969 C 232.101562 76.246094 229.914062 76.234375 228.425781 76.222656 C 225.765625 76.195312 222.738281 75.671875 220.449219 74.265625 C 220.097656 74.050781 220.085938 73.632812 220.328125 73.332031 C 222.527344 70.621094 225.898438 70.851562 229.09375 71.335938 C 227.25 69.824219 225.320312 68.421875 223.292969 67.148438 C 223.183594 67.082031 223.113281 66.996094 223.070312 66.898438 C 219.816406 67.574219 215.929688 66.703125 213.6875 64.210938 C 213.457031 63.957031 213.433594 63.4375 213.804688 63.277344 C 216.164062 62.273438 218.464844 62.429688 220.726562 63.144531 C 217.9375 59.828125 214.714844 54.15625 219.601562 53.167969 C 225.796875 51.917969 224.621094 63.011719 224.167969 66.304688 C 226.347656 67.691406 228.421875 69.21875 230.390625 70.867188 C 228.824219 66.421875 229.265625 60.890625 232.1875 57.207031 C 232.378906 56.960938 232.828125 56.984375 233.023438 57.207031 C 236.863281 61.472656 234.6875 68.824219 233.671875 73.8125 C 236.816406 76.828125 239.667969 80.15625 242.25 83.707031 C 242.378906 83.8125 242.511719 83.917969 242.640625 84.023438 C 241.777344 77.824219 243.070312 70.269531 248.433594 66.601562 C 248.683594 66.429688 249.121094 66.53125 249.246094 66.8125 C 252.199219 73.359375 247.238281 81.195312 244.601562 87.113281 C 247.425781 91.414062 249.894531 95.976562 252.046875 100.65625 C 251.703125 93.96875 254.792969 86.539062 259.382812 82.1875 C 259.644531 81.941406 260.140625 81.957031 260.316406 82.308594 C 262.519531 86.792969 262.09375 91.261719 260.222656 95.78125 C 258.632812 99.617188 255.933594 103.164062 254.925781 107.226562 C 255.144531 107.367188 255.203125 107.675781 255.109375 107.933594 C 256.117188 110.550781 257.035156 113.175781 257.867188 115.792969 C 258.019531 116.269531 258.164062 116.746094 258.3125 117.222656 C 259.75 112.191406 263.984375 107.492188 267.449219 104.011719 C 267.746094 103.710938 268.351562 103.824219 268.441406 104.273438 C 270.054688 112.335938 266.960938 121.960938 261.054688 127.746094 C 261.816406 131.292969 262.417969 134.867188 262.839844 138.453125 C 264.941406 131.746094 270.679688 126.09375 275.988281 121.878906 C 276.3125 121.621094 276.871094 121.664062 276.980469 122.140625 C 279.332031 132.4375 272.648438 143.34375 263.515625 147.902344 C 263.515625 147.914062 263.515625 147.925781 263.515625 147.9375 C 263.808594 148.164062 263.753906 148.546875 263.535156 148.78125 C 263.621094 154 263.285156 159.214844 262.476562 164.386719 C 262.488281 164.464844 262.496094 164.546875 262.507812 164.625 C 264.621094 156.871094 271.496094 151.144531 278.320312 147.242188 C 278.648438 147.054688 279.097656 147.222656 279.191406 147.597656 C 281.820312 157.796875 272.289062 168.964844 262.015625 169.21875 C 261.886719 169.222656 261.777344 169.191406 261.691406 169.132812 C 261.660156 169.117188 261.628906 169.097656 261.601562 169.074219 C 260.976562 171.976562 260.203125 174.859375 259.253906 177.714844 C 258.429688 180.195312 257.503906 182.644531 256.488281 185.058594 C 260.351562 181.066406 265.417969 178.109375 270.554688 176.4375 C 271.007812 176.289062 271.378906 176.746094 271.285156 177.164062 C 269.242188 186.339844 262.535156 195.429688 252.214844 194.679688 C 252.097656 194.671875 252.003906 194.632812 251.925781 194.582031 C 250.03125 198.089844 247.949219 201.5 245.703125 204.804688 C 251.308594 200.5625 258.710938 201.015625 265.96875 202.210938 C 266.328125 202.269531 266.539062 202.789062 266.324219 203.082031 C 260.449219 211.101562 250.9375 212.617188 241.8125 210.222656 C 238.203125 214.972656 234.261719 219.46875 230.074219 223.671875 C 236.226562 221.382812 244.390625 224.957031 250.316406 225.929688 C 250.742188 226 250.902344 226.648438 250.578125 226.921875 C 243.375 232.960938 232.675781 234.542969 224.914062 228.59375 L 224.910156 228.589844 C 218.914062 234.007812 212.332031 238.910156 205.300781 243.003906 C 208.714844 242.65625 212.46875 243.390625 215.578125 244.015625 C 219.914062 244.882812 225.734375 246.261719 228.757812 249.800781 C 229.015625 250.105469 228.96875 250.503906 228.636719 250.730469 C 223.992188 253.914062 217.523438 254.410156 212.074219 254.003906 C 206.917969 253.617188 200.789062 251.914062 198.175781 247.019531 C 198.140625 246.953125 198.121094 246.886719 198.109375 246.820312 C 191.175781 250.152344 183.875 252.671875 176.3125 254.113281 C 175.566406 254.253906 175.246094 253.113281 176 252.96875 Z M 176 252.96875 " fill-opacity="1" fill-rule="nonzero"/></g><g clip-path="url(#12d2674217)"><path fill="#f06323" d="M 118.316406 252.96875 C 111.046875 251.582031 104.046875 249.214844 97.390625 246.082031 C 97.398438 246.066406 97.402344 246.050781 97.410156 246.03125 C 97.792969 245.933594 98.066406 245.46875 97.757812 245.117188 C 101.609375 234.34375 97.9375 222.308594 88.570312 215.550781 C 88.25 215.320312 87.800781 215.566406 87.699219 215.90625 C 84.570312 226.332031 88.566406 238.09375 96.375 245.4375 C 96.359375 245.484375 96.34375 245.527344 96.324219 245.570312 C 86.992188 241.039062 78.34375 235.011719 70.582031 228.058594 C 79.316406 221.507812 73 207.382812 68.386719 200.109375 C 68.109375 199.671875 67.457031 199.757812 67.300781 200.253906 C 64.691406 208.542969 62.757812 216.695312 66.808594 224.542969 C 63.734375 221.558594 60.808594 218.4375 58.054688 215.21875 C 56.554688 213.460938 55.09375 211.65625 53.679688 209.804688 C 62.328125 204.980469 60.117188 192.695312 56.054688 185.40625 C 55.824219 185 55.265625 185.046875 55.027344 185.40625 C 51.660156 190.5 47.84375 197.132812 49.0625 203.359375 C 46.953125 200.199219 44.984375 196.9375 43.191406 193.585938 C 43.238281 193.480469 43.246094 193.347656 43.1875 193.195312 C 42.980469 192.675781 42.75 192.164062 42.507812 191.660156 C 50.820312 187.199219 51.84375 178.164062 51.863281 169.578125 C 51.863281 169.136719 51.355469 168.824219 50.972656 169.066406 C 44.316406 173.242188 39.734375 179.714844 40 187.109375 C 37.292969 181.113281 35.160156 174.878906 33.757812 168.484375 C 39.972656 164.761719 45.460938 157.695312 47.097656 150.757812 C 47.210938 150.292969 46.816406 149.949219 46.371094 150.03125 C 39.734375 151.195312 34.542969 155.617188 32.535156 161.542969 C 32.082031 158.117188 31.835938 154.65625 31.839844 151.171875 C 31.839844 150.34375 31.855469 149.519531 31.878906 148.691406 C 39.617188 144.53125 49.035156 138.925781 50.734375 129.570312 C 50.800781 129.21875 50.578125 128.789062 50.164062 128.820312 C 43.308594 129.34375 35.558594 133.769531 32.433594 140.246094 C 32.824219 136.503906 33.40625 132.777344 34.164062 129.085938 C 34.328125 129.222656 34.566406 129.273438 34.808594 129.132812 C 41.945312 125.050781 50.585938 122.382812 53.109375 113.601562 C 53.207031 113.25 52.921875 112.820312 52.535156 112.847656 C 46.578125 113.277344 40.089844 115.308594 36.484375 119.941406 C 36.480469 119.875 36.472656 119.804688 36.464844 119.734375 C 37.53125 116.035156 38.761719 112.382812 40.140625 108.808594 C 40.382812 108.800781 40.632812 108.648438 40.734375 108.402344 C 44.46875 108.511719 47.867188 107.101562 50.894531 104.882812 C 52.53125 103.679688 53.941406 102.207031 55.226562 100.644531 C 56.089844 99.589844 57.398438 98.25 57.398438 96.839844 C 57.398438 96.523438 57.128906 96.234375 56.804688 96.246094 C 51.46875 96.410156 46.777344 99.324219 42.691406 102.644531 C 44.996094 97.472656 47.714844 92.359375 50.886719 87.558594 C 55.621094 86.976562 61.800781 85.789062 64.117188 81.167969 C 64.289062 80.828125 64.148438 80.40625 63.761719 80.296875 C 60.789062 79.460938 57.84375 80.171875 55.207031 81.59375 C 57.042969 79.289062 59 77.09375 61.09375 75.042969 C 62.210938 76.246094 64.398438 76.234375 65.886719 76.222656 C 68.546875 76.195312 71.574219 75.671875 73.867188 74.265625 C 74.214844 74.050781 74.226562 73.632812 73.988281 73.332031 C 71.785156 70.621094 68.414062 70.851562 65.222656 71.335938 C 67.0625 69.824219 68.992188 68.421875 71.019531 67.148438 C 71.128906 67.082031 71.199219 66.996094 71.242188 66.898438 C 74.496094 67.574219 78.382812 66.703125 80.628906 64.210938 C 80.855469 63.957031 80.878906 63.4375 80.507812 63.277344 C 78.148438 62.273438 75.847656 62.429688 73.585938 63.144531 C 76.378906 59.828125 79.601562 54.15625 74.710938 53.167969 C 68.515625 51.917969 69.691406 63.011719 70.148438 66.304688 C 67.964844 67.691406 65.894531 69.21875 63.925781 70.867188 C 65.492188 66.421875 65.050781 60.890625 62.128906 57.207031 C 61.933594 56.960938 61.488281 56.984375 61.289062 57.207031 C 57.449219 61.472656 59.625 68.824219 60.640625 73.8125 C 57.5 76.828125 54.648438 80.15625 52.0625 83.707031 C 51.933594 83.8125 51.800781 83.917969 51.675781 84.023438 C 52.539062 77.824219 51.246094 70.269531 45.878906 66.601562 C 45.632812 66.429688 45.195312 66.53125 45.066406 66.8125 C 42.113281 73.359375 47.078125 81.195312 49.710938 87.113281 C 46.886719 91.414062 44.417969 95.976562 42.269531 100.65625 C 42.609375 93.96875 39.519531 86.539062 34.929688 82.1875 C 34.667969 81.941406 34.171875 81.957031 34 82.308594 C 31.792969 86.792969 32.21875 91.261719 34.09375 95.78125 C 35.679688 99.617188 38.378906 103.164062 39.386719 107.226562 C 39.171875 107.367188 39.109375 107.675781 39.207031 107.933594 C 38.199219 110.550781 37.277344 113.175781 36.445312 115.792969 C 36.292969 116.269531 36.148438 116.746094 36.003906 117.222656 C 34.566406 112.191406 30.328125 107.492188 26.867188 104.011719 C 26.566406 103.710938 25.964844 103.824219 25.875 104.273438 C 24.257812 112.335938 27.351562 121.960938 33.257812 127.746094 C 32.496094 131.292969 31.894531 134.867188 31.476562 138.453125 C 29.371094 131.746094 23.632812 126.09375 18.328125 121.878906 C 18 121.621094 17.445312 121.664062 17.335938 122.140625 C 14.980469 132.4375 21.664062 143.34375 30.800781 147.902344 C 30.796875 147.914062 30.796875 147.925781 30.796875 147.9375 C 30.503906 148.164062 30.558594 148.546875 30.777344 148.78125 C 30.695312 154 31.027344 159.214844 31.839844 164.386719 C 31.828125 164.464844 31.816406 164.546875 31.808594 164.625 C 29.691406 156.871094 22.816406 151.144531 15.992188 147.242188 C 15.664062 147.054688 15.21875 147.222656 15.121094 147.597656 C 12.492188 157.796875 22.023438 168.964844 32.296875 169.21875 C 32.425781 169.222656 32.535156 169.191406 32.621094 169.132812 C 32.652344 169.117188 32.683594 169.097656 32.714844 169.074219 C 33.335938 171.976562 34.113281 174.859375 35.058594 177.714844 C 35.882812 180.195312 36.808594 182.644531 37.824219 185.058594 C 33.960938 181.066406 28.898438 178.109375 23.757812 176.4375 C 23.304688 176.289062 22.933594 176.746094 23.027344 177.164062 C 25.074219 186.339844 31.78125 195.429688 42.101562 194.679688 C 42.214844 194.671875 42.308594 194.632812 42.386719 194.582031 C 44.28125 198.089844 46.367188 201.5 48.609375 204.804688 C 43.003906 200.5625 35.605469 201.015625 28.34375 202.210938 C 27.988281 202.269531 27.777344 202.789062 27.988281 203.082031 C 33.863281 211.101562 43.375 212.617188 52.5 210.222656 C 56.109375 214.972656 60.050781 219.46875 64.238281 223.671875 C 58.085938 221.382812 49.925781 224.957031 43.996094 225.929688 C 43.570312 226 43.410156 226.648438 43.734375 226.921875 C 50.9375 232.960938 61.636719 234.542969 69.398438 228.59375 L 69.402344 228.589844 C 75.402344 234.007812 81.980469 238.910156 89.015625 243.003906 C 85.601562 242.65625 81.84375 243.390625 78.738281 244.015625 C 74.398438 244.882812 68.578125 246.261719 65.558594 249.800781 C 65.296875 250.105469 65.347656 250.503906 65.675781 250.730469 C 70.324219 253.914062 76.792969 254.410156 82.238281 254.003906 C 87.394531 253.617188 93.523438 251.914062 96.136719 247.019531 C 96.171875 246.953125 96.191406 246.886719 96.203125 246.820312 C 103.136719 250.152344 110.441406 252.671875 118 254.113281 C 118.746094 254.253906 119.066406 253.113281 118.316406 252.96875 Z M 118.316406 252.96875 " fill-opacity="1" fill-rule="nonzero"/></g></svg>