<svg xmlns="http://www.w3.org/2000/svg" xmlns:xlink="http://www.w3.org/1999/xlink" width="396" zoomAndPan="magnify" viewBox="0 0 297 296.999993" height="396" preserveAspectRatio="xMidYMid meet" version="1.0"><defs><clipPath id="b71a99dcbf"><path d="M 34 13.644531 L 289.402344 13.644531 L 289.402344 248 L 34 248 Z M 34 13.644531 " clip-rule="nonzero"/></clipPath><clipPath id="4de0d9767e"><path d="M 36 169 L 286 169 L 286 267.144531 L 36 267.144531 Z M 36 169 " clip-rule="nonzero"/></clipPath></defs><path fill="#9a2546" d="M 101.0625 103.386719 C 98.757812 102.089844 96.363281 101.195312 94 100.707031 C 92.816406 100.476562 91.632812 100.332031 90.507812 100.273438 C 89.355469 100.246094 88.261719 100.300781 87.191406 100.476562 C 84.914062 100.820312 82.839844 101.65625 81.109375 102.867188 C 82.433594 100.300781 83.734375 97.824219 85.089844 95.371094 C 86.558594 94.996094 87.886719 94.421875 89.007812 93.699219 C 90.59375 92.71875 91.835938 91.449219 92.730469 89.980469 C 93.625 88.507812 94.171875 86.808594 94.285156 84.960938 C 94.429688 83.117188 94.171875 81.125 93.449219 79.023438 C 91.257812 79.164062 89.296875 79.769531 87.625 80.722656 C 85.980469 81.675781 84.65625 83 83.703125 84.558594 C 82.78125 86.117188 82.261719 87.902344 82.148438 89.804688 C 82.089844 91.191406 82.289062 92.632812 82.753906 94.101562 C 81.398438 96.582031 80.042969 99.089844 78.714844 101.6875 C 78.714844 99.554688 78.226562 97.332031 77.273438 95.167969 C 76.839844 94.160156 76.292969 93.152344 75.628906 92.199219 C 74.996094 91.21875 74.273438 90.296875 73.46875 89.402344 C 71.824219 87.613281 69.832031 86 67.527344 84.703125 C 67.007812 85.652344 66.574219 86.664062 66.316406 87.703125 C 66.054688 88.738281 65.910156 89.777344 65.910156 90.84375 C 65.910156 91.910156 66 92.976562 66.230469 94.015625 C 66.460938 95.082031 66.804688 96.121094 67.265625 97.128906 C 68.191406 99.179688 69.515625 101.082031 71.246094 102.78125 C 72.6875 104.195312 74.359375 105.464844 76.265625 106.53125 C 75.457031 108.203125 74.621094 109.90625 73.8125 111.664062 C 72.199219 115.125 70.613281 118.671875 69.085938 122.246094 C 68.96875 119.710938 68.246094 117.113281 66.949219 114.664062 C 65.769531 112.441406 64.183594 110.335938 62.191406 108.464844 C 60.203125 106.589844 57.839844 104.917969 55.097656 103.648438 C 54.578125 104.773438 54.203125 105.898438 54.003906 107.078125 C 53.800781 108.261719 53.742188 109.445312 53.800781 110.625 C 53.886719 111.808594 54.089844 112.992188 54.433594 114.144531 C 54.78125 115.296875 55.273438 116.449219 55.847656 117.574219 C 58.039062 121.667969 61.902344 125.246094 66.835938 127.550781 C 66.488281 128.386719 66.144531 129.195312 65.824219 130.03125 C 64.066406 134.414062 62.335938 138.855469 60.691406 143.382812 C 60.664062 142.949219 60.605469 142.519531 60.546875 142.113281 C 60.171875 139.605469 59.25 137.097656 57.808594 134.703125 C 54.984375 129.945312 50.167969 125.679688 43.96875 123.199219 C 41.949219 128.246094 42.757812 133.808594 45.667969 138.597656 C 47.140625 140.988281 49.101562 143.179688 51.496094 145.054688 C 53.570312 146.671875 55.992188 148.054688 58.644531 149.121094 C 56.800781 154.339844 55.070312 159.617188 53.398438 164.894531 C 53.050781 161.550781 51.78125 158.203125 49.734375 155.121094 C 48.035156 152.582031 45.8125 150.1875 43.132812 148.140625 C 40.480469 146.09375 37.363281 144.363281 33.875 143.179688 C 33.386719 144.59375 33.097656 146.035156 32.980469 147.476562 C 32.867188 148.917969 32.953125 150.390625 33.183594 151.804688 C 33.671875 154.6875 34.828125 157.484375 36.558594 160.019531 C 39.816406 164.835938 45.035156 168.789062 51.523438 170.980469 C 49.964844 176.199219 48.464844 181.417969 47.082031 186.664062 C 46.59375 182.917969 45.007812 179.253906 42.582031 175.882812 C 38.632812 170.488281 32.433594 165.875 24.707031 163.566406 C 22.800781 169.855469 24.417969 176.488281 28.425781 181.90625 C 32.230469 187.039062 38.199219 191.105469 45.4375 193.183594 C 44.34375 197.625 43.304688 202.035156 42.324219 206.445312 C 42.152344 207.226562 41.976562 208.03125 41.804688 208.8125 C 41.140625 204.660156 39.238281 200.652344 36.328125 196.988281 C 31.800781 191.308594 24.820312 186.609375 16.371094 184.445312 C 14.613281 191.394531 16.632812 198.574219 21.273438 204.285156 C 23.582031 207.140625 26.578125 209.648438 30.011719 211.636719 C 33.125 213.425781 36.613281 214.78125 40.421875 215.644531 C 39.382812 220.980469 38.460938 226.140625 37.710938 231.160156 C 36.757812 226.632812 34.453125 222.308594 31.078125 218.441406 C 28.511719 215.5 25.253906 212.820312 21.535156 210.6875 C 17.8125 208.523438 13.574219 206.851562 8.960938 205.929688 C 7.402344 213.628906 9.941406 221.382812 15.277344 227.324219 C 17.957031 230.324219 21.304688 232.832031 25.167969 234.765625 C 28.65625 236.492188 32.578125 237.734375 36.730469 238.398438 C 36.414062 240.964844 36.097656 243.472656 35.863281 245.953125 L 38.519531 246.210938 C 38.777344 243.730469 39.066406 241.253906 39.382812 238.714844 C 43.59375 239.117188 47.6875 238.945312 51.496094 238.3125 C 55.703125 237.589844 59.625 236.320312 63 234.621094 C 69.777344 231.1875 74.535156 226.027344 75.859375 219.511719 C 71.246094 218.558594 66.71875 218.328125 62.453125 218.789062 C 58.183594 219.222656 54.261719 220.347656 50.773438 222.078125 C 46.273438 224.296875 42.640625 227.582031 40.390625 231.59375 C 41.140625 226.601562 42.035156 221.5 43.074219 216.164062 C 46.910156 216.800781 50.65625 216.855469 54.203125 216.480469 C 58.15625 216.050781 61.816406 215.070312 65.074219 213.628906 C 71.535156 210.714844 76.234375 206.042969 77.761719 199.960938 C 69.285156 197.824219 61.011719 198.375 54.40625 201.257812 C 50.226562 203.074219 46.765625 205.871094 44.488281 209.359375 C 44.660156 208.582031 44.804688 207.800781 44.976562 207.023438 C 45.929688 202.640625 46.96875 198.230469 48.0625 193.816406 C 55.414062 195.375 62.566406 194.683594 68.304688 192.402344 C 74.417969 189.980469 78.917969 185.800781 80.589844 180.234375 C 76.726562 179.082031 72.890625 178.5625 69.226562 178.621094 C 65.566406 178.679688 62.105469 179.339844 59.019531 180.523438 C 55.183594 181.996094 51.957031 184.328125 49.675781 187.328125 C 51.0625 182.109375 52.53125 176.917969 54.089844 171.730469 C 60.691406 173.429688 67.238281 173.113281 72.542969 171.265625 C 75.371094 170.285156 77.878906 168.875 79.898438 167.085938 C 80.90625 166.191406 81.800781 165.210938 82.523438 164.117188 C 83.242188 163.019531 83.847656 161.867188 84.308594 160.597656 C 80.820312 159.386719 77.332031 158.753906 73.984375 158.667969 C 70.640625 158.578125 67.46875 159.039062 64.585938 160.019531 C 61.125 161.175781 58.15625 163.105469 55.964844 165.644531 C 57.605469 160.367188 59.335938 155.148438 61.183594 149.957031 C 63.921875 150.792969 66.632812 151.226562 69.257812 151.3125 C 72.285156 151.429688 75.195312 151.054688 77.820312 150.273438 C 83.039062 148.71875 87.136719 145.605469 88.894531 141.105469 C 82.695312 138.625 76.351562 138.222656 71.074219 139.75 C 68.449219 140.5 66.085938 141.738281 64.152344 143.382812 C 63.835938 143.671875 63.546875 143.960938 63.257812 144.25 C 64.902344 139.777344 66.605469 135.367188 68.363281 131.011719 C 68.679688 130.207031 69.027344 129.367188 69.371094 128.5625 C 74.503906 130.40625 79.722656 130.636719 84.109375 129.601562 C 85.289062 129.3125 86.414062 128.9375 87.453125 128.476562 C 88.492188 128.015625 89.5 127.464844 90.363281 126.832031 C 91.257812 126.195312 92.039062 125.476562 92.730469 124.640625 C 93.421875 123.832031 94 122.9375 94.460938 121.957031 C 91.75 120.6875 88.980469 119.882812 86.269531 119.535156 C 83.558594 119.191406 80.9375 119.277344 78.542969 119.851562 C 75.859375 120.457031 73.46875 121.640625 71.5625 123.285156 C 73.09375 119.738281 74.648438 116.21875 76.265625 112.789062 C 77.070312 111.058594 77.878906 109.355469 78.714844 107.683594 C 80.703125 108.519531 82.722656 109.097656 84.714844 109.386719 C 87.105469 109.761719 89.414062 109.730469 91.546875 109.386719 C 92.613281 109.210938 93.625 108.953125 94.574219 108.605469 C 95.527344 108.261719 96.421875 107.855469 97.257812 107.339844 C 98.0625 106.847656 98.8125 106.242188 99.449219 105.578125 C 100.023438 104.945312 100.601562 104.222656 101.0625 103.386719 Z M 101.0625 103.386719 " fill-opacity="1" fill-rule="nonzero"/><g clip-path="url(#b71a99dcbf)"><path fill="#f06323" d="M 264.996094 92.085938 C 266.8125 88.914062 268.367188 85.683594 269.609375 82.570312 C 271.136719 78.703125 272.289062 74.839844 273.039062 71.003906 C 275.203125 71.179688 277.394531 70.71875 279.527344 69.5625 C 282.066406 68.152344 284.457031 65.726562 286.304688 62.238281 C 288.121094 58.777344 289.390625 54.25 289.476562 49.089844 C 289.589844 43.929688 288.46875 38.191406 286.101562 32.828125 C 283.679688 33.921875 281.835938 36.027344 280.421875 38.621094 C 279.699219 39.921875 279.039062 41.417969 278.488281 42.949219 C 278.230469 43.726562 277.914062 44.535156 277.652344 45.339844 C 277.394531 46.175781 277.164062 46.984375 276.902344 47.851562 C 275.921875 51.28125 275.085938 54.972656 274.222656 58.808594 C 274.164062 59.039062 274.105469 59.269531 274.078125 59.5 C 273.992188 53.414062 272.75 47.332031 270.445312 41.679688 C 270.617188 39.171875 270.328125 36.460938 269.523438 33.808594 C 268.425781 30.144531 266.4375 26.570312 263.839844 23.542969 C 261.246094 20.515625 258.074219 18.003906 254.699219 16.304688 C 251.328125 14.601562 247.808594 13.707031 244.492188 13.652344 C 245.90625 16.648438 247.664062 19.5625 249.597656 22.332031 C 251.527344 25.128906 253.632812 27.78125 255.824219 30.375 C 258.015625 32.941406 260.292969 35.421875 262.660156 37.757812 C 264.390625 39.457031 266.121094 41.101562 267.9375 42.6875 C 270.128906 48.023438 271.28125 53.820312 271.367188 59.585938 C 271.308594 59.355469 271.253906 59.125 271.195312 58.894531 C 270.128906 55.347656 268.195312 52.433594 265.945312 50.445312 C 265.398438 49.957031 264.765625 49.523438 264.1875 49.117188 C 263.582031 48.742188 263.003906 48.398438 262.34375 48.109375 C 261.042969 47.5625 259.804688 47.214844 258.507812 47.070312 C 255.910156 46.8125 253.402344 47.300781 250.980469 48.398438 C 252.046875 50.820312 253.230469 52.925781 254.585938 55.03125 C 255.941406 57.136719 257.441406 59.296875 259.140625 61.402344 C 260.8125 63.507812 262.660156 65.554688 264.734375 67.226562 C 266.4375 68.613281 268.339844 69.765625 270.414062 70.398438 C 269.695312 74.0625 268.597656 77.78125 267.128906 81.5 C 265.917969 84.527344 264.417969 87.613281 262.660156 90.671875 C 260.988281 93.554688 259.082031 96.410156 256.976562 99.179688 C 256.34375 100.015625 255.652344 100.851562 254.960938 101.65625 C 255.191406 101.226562 255.390625 100.765625 255.59375 100.332031 C 256.460938 98.398438 257.035156 96.4375 257.410156 94.5625 C 257.757812 92.660156 257.902344 90.816406 257.785156 89.085938 C 257.582031 85.597656 256.488281 82.539062 254.730469 80.144531 C 252.96875 77.753906 250.605469 75.992188 247.835938 74.839844 C 247.203125 76.367188 246.625 77.898438 246.105469 79.484375 C 245.589844 81.039062 245.125 82.625 244.75 84.242188 C 244.347656 85.828125 244.03125 87.441406 243.773438 89.054688 C 243.511719 90.671875 243.339844 92.285156 243.222656 93.902344 C 243.195312 94.304688 243.164062 94.707031 243.164062 95.113281 C 243.136719 95.515625 243.136719 95.917969 243.136719 96.292969 C 243.136719 97.101562 243.136719 97.878906 243.195312 98.660156 C 243.222656 99.0625 243.253906 99.4375 243.28125 99.839844 C 243.308594 100.246094 243.339844 100.621094 243.398438 100.996094 C 243.484375 101.773438 243.597656 102.523438 243.773438 103.273438 C 244.089844 104.773438 244.550781 106.214844 245.183594 107.539062 C 245.617188 108.464844 246.136719 109.355469 246.769531 110.191406 C 245.445312 111.402344 244.058594 112.617188 242.617188 113.769531 C 237.832031 117.71875 232.265625 121.554688 225.691406 125.503906 C 223.125 127.035156 220.53125 128.503906 217.992188 129.859375 C 218.625 129.3125 219.230469 128.792969 219.808594 128.214844 C 223.242188 124.898438 225.863281 121.296875 227.507812 117.632812 C 227.941406 116.738281 228.257812 115.816406 228.546875 114.894531 C 228.835938 113.96875 229.066406 113.078125 229.238281 112.183594 C 229.554688 110.394531 229.640625 108.636719 229.496094 106.964844 C 229.355469 105.292969 228.949219 103.675781 228.34375 102.148438 C 227.738281 100.621094 226.929688 99.207031 225.894531 97.878906 C 222.492188 100.476562 219.347656 103.386719 216.550781 106.558594 C 213.753906 109.730469 211.246094 113.105469 209.398438 116.59375 C 205.910156 123.082031 204.554688 129.859375 206.804688 135.625 C 202.449219 137.761719 198.007812 139.894531 193.710938 141.914062 C 192.039062 142.691406 190.367188 143.5 188.722656 144.277344 L 175.632812 150.503906 C 180.878906 146.554688 185.121094 142.058594 188.089844 137.414062 C 190.570312 133.578125 192.15625 129.628906 192.703125 125.820312 C 193.25 122.015625 192.789062 118.355469 191.175781 115.039062 C 186.042969 117.515625 181.199219 120.632812 177.160156 124.035156 C 173.125 127.4375 169.777344 131.1875 167.328125 135.019531 C 162.714844 142.230469 161.128906 149.785156 163.578125 156.1875 L 132.957031 170.75 C 148.496094 159.242188 156.167969 143.382812 150.574219 131.589844 C 127.910156 142.375 114.671875 162.300781 120.324219 176.746094 L 113.460938 180.089844 C 106.773438 183.261719 100.746094 186.175781 94.71875 189.289062 C 93.191406 190.070312 91.71875 190.847656 90.277344 191.625 C 91.664062 190.5 93.019531 189.347656 94.316406 188.195312 C 99.015625 183.957031 102.996094 179.484375 105.9375 174.902344 C 108.878906 170.316406 110.78125 165.644531 111.472656 161.144531 C 112.164062 156.617188 111.675781 152.265625 109.800781 148.3125 C 106.628906 149.8125 103.660156 151.484375 100.832031 153.300781 C 98.007812 155.089844 95.324219 157.082031 92.816406 159.183594 C 87.796875 163.394531 83.558594 168.125 80.5625 173.027344 C 77.53125 177.898438 75.714844 182.917969 75.339844 187.558594 C 75.140625 189.894531 75.3125 192.117188 75.804688 194.25 C 76.207031 195.921875 76.8125 197.535156 77.648438 199.035156 C 77.300781 199.265625 76.925781 199.496094 76.582031 199.726562 C 73.582031 201.660156 70.699219 203.679688 67.988281 205.726562 C 65.363281 207.6875 62.710938 209.878906 59.855469 212.417969 C 57.289062 214.695312 54.78125 217.203125 52.386719 219.855469 C 52.300781 219.941406 52.242188 220.027344 52.15625 220.117188 C 53.3125 218.296875 54.433594 216.480469 55.53125 214.664062 C 55.992188 213.914062 56.425781 213.195312 56.859375 212.445312 C 57.289062 211.722656 57.722656 210.972656 58.15625 210.253906 C 58.558594 209.53125 58.992188 208.78125 59.394531 208.0625 C 59.800781 207.339844 60.203125 206.589844 60.578125 205.871094 C 61.386719 204.429688 62.105469 202.957031 62.828125 201.574219 C 63.171875 200.851562 63.519531 200.160156 63.863281 199.441406 C 64.210938 198.746094 64.527344 198.027344 64.84375 197.335938 C 67.324219 191.710938 69.054688 186.289062 69.546875 181.15625 C 69.777344 178.621094 69.71875 176.140625 69.316406 173.804688 C 68.882812 171.46875 68.132812 169.277344 66.921875 167.230469 C 63.113281 169.480469 59.480469 172.015625 56.136719 174.8125 C 52.792969 177.640625 49.734375 180.667969 47.023438 183.925781 C 44.3125 187.183594 42.035156 190.53125 40.191406 193.933594 C 39.730469 194.769531 39.296875 195.632812 38.894531 196.5 C 38.488281 197.363281 38.085938 198.171875 37.738281 199.035156 C 37.046875 200.765625 36.441406 202.382812 35.980469 204.082031 C 34.078125 210.742188 34.019531 216.914062 35.519531 221.875 C 36.902344 226.402344 39.46875 229.863281 42.902344 232.339844 C 42.871094 232.398438 42.816406 232.457031 42.785156 232.515625 L 41.429688 234.734375 L 40.132812 237.070312 C 38.460938 240.214844 37.019531 243.472656 35.863281 246.757812 L 38.375 247.652344 C 39.5 244.511719 40.910156 241.367188 42.496094 238.339844 L 43.738281 236.089844 L 45.09375 233.871094 C 45.121094 233.839844 45.148438 233.785156 45.179688 233.753906 C 48.898438 235.773438 53.050781 236.726562 57.261719 237.128906 C 61.960938 237.5625 66.75 237.332031 71.535156 236.695312 C 72.71875 236.523438 73.957031 236.351562 75.140625 236.121094 C 75.714844 236.003906 76.351562 235.886719 76.957031 235.773438 C 77.5625 235.65625 78.136719 235.515625 78.742188 235.371094 C 81.167969 234.792969 83.589844 234.101562 86.011719 233.265625 C 88.433594 232.457031 90.941406 231.449219 93.507812 230.265625 C 96.074219 229.082031 98.699219 227.726562 101.410156 226.140625 C 100.226562 224.125 98.785156 222.277344 97.113281 220.691406 C 95.441406 219.105469 93.535156 217.75 91.433594 216.65625 C 87.222656 214.464844 82.148438 213.308594 76.609375 213.511719 C 75.917969 213.539062 75.226562 213.570312 74.503906 213.65625 C 73.8125 213.742188 73.09375 213.828125 72.398438 213.914062 C 70.957031 214.117188 69.546875 214.464844 68.074219 214.867188 C 67.355469 215.070312 66.632812 215.300781 65.882812 215.558594 C 65.164062 215.820312 64.414062 216.078125 63.691406 216.394531 C 62.972656 216.710938 62.222656 217.03125 61.5 217.375 C 60.78125 217.75 60.058594 218.125 59.335938 218.53125 C 57.605469 219.511719 55.90625 220.605469 54.261719 221.875 C 54.320312 221.816406 54.347656 221.757812 54.40625 221.730469 C 56.742188 219.164062 59.195312 216.710938 61.671875 214.492188 C 64.46875 211.984375 67.066406 209.851562 69.601562 207.945312 C 72.285156 205.929688 75.140625 203.9375 78.050781 202.035156 C 78.398438 201.804688 78.742188 201.601562 79.117188 201.371094 C 80.128906 202.757812 81.308594 203.996094 82.636719 205.121094 C 84.28125 206.503906 86.125 207.714844 88.144531 208.695312 C 92.152344 210.6875 96.765625 211.925781 101.839844 212.472656 C 106.886719 212.992188 112.425781 212.792969 118.335938 211.695312 C 121.304688 211.148438 124.363281 210.367188 127.503906 209.332031 C 130.648438 208.292969 133.847656 207.023438 137.019531 205.523438 C 135.148438 201.574219 132.089844 198.429688 128.140625 196.125 C 124.1875 193.816406 119.375 192.316406 114.011719 191.710938 C 108.675781 191.105469 102.792969 191.367188 96.679688 192.722656 C 95.007812 193.097656 93.335938 193.527344 91.664062 194.078125 C 93.074219 193.296875 94.515625 192.546875 96.015625 191.769531 C 101.984375 188.683594 107.984375 185.800781 114.671875 182.628906 L 121.480469 179.398438 C 129.148438 192.894531 152.9375 195.230469 175.605469 184.472656 C 170.007812 172.679688 152.824219 168.613281 134.109375 173.402344 L 164.734375 158.839844 C 168.164062 164.78125 175 168.328125 183.535156 169.304688 C 188.0625 169.824219 193.078125 169.59375 198.269531 168.644531 C 203.488281 167.664062 208.824219 165.960938 214.332031 163.308594 C 212.746094 159.992188 210.089844 157.367188 206.746094 155.4375 C 203.402344 153.503906 199.335938 152.265625 194.808594 151.746094 C 189.328125 151.109375 183.160156 151.574219 176.785156 153.128906 L 189.878906 146.902344 C 191.550781 146.09375 193.195312 145.316406 194.867188 144.535156 C 199.191406 142.488281 203.632812 140.382812 208.015625 138.222656 C 211.214844 143.5 217.472656 146.640625 225.546875 146.957031 C 229.871094 147.101562 234.71875 146.496094 239.851562 144.796875 C 244.953125 143.09375 250.316406 140.382812 255.421875 136.460938 C 254.410156 135.136719 253.144531 134.039062 251.730469 133.144531 C 250.289062 132.253906 248.703125 131.589844 246.972656 131.042969 C 245.242188 130.492188 243.367188 130.175781 241.40625 129.972656 C 240.425781 129.859375 239.417969 129.800781 238.378906 129.773438 C 237.339844 129.742188 236.304688 129.773438 235.234375 129.773438 C 230.96875 129.945312 226.414062 130.578125 221.742188 131.792969 C 220.960938 131.992188 220.183594 132.222656 219.375 132.453125 C 221.941406 131.070312 224.539062 129.601562 227.132812 128.042969 C 233.851562 124.035156 239.476562 120.140625 244.378906 116.105469 C 245.847656 114.921875 247.289062 113.652344 248.644531 112.414062 C 249.421875 113.105469 250.257812 113.710938 251.183594 114.230469 C 252.507812 114.949219 253.949219 115.441406 255.535156 115.699219 C 256.34375 115.84375 257.152344 115.929688 258.015625 115.929688 C 258.449219 115.929688 258.882812 115.960938 259.3125 115.929688 C 259.746094 115.902344 260.207031 115.875 260.667969 115.816406 C 261.59375 115.699219 262.515625 115.527344 263.496094 115.269531 C 263.984375 115.152344 264.445312 115.007812 264.9375 114.863281 C 265.425781 114.691406 265.917969 114.519531 266.40625 114.34375 C 268.398438 113.597656 270.386719 112.527344 272.40625 111.230469 C 274.394531 109.90625 276.386719 108.320312 278.289062 106.414062 C 280.164062 104.542969 281.980469 102.378906 283.621094 99.957031 C 285.265625 97.535156 286.738281 94.851562 287.949219 91.941406 C 285.179688 90.785156 282.066406 90.84375 278.835938 91.621094 C 275.605469 92.402344 272.234375 93.929688 268.800781 95.832031 C 267.101562 96.8125 265.339844 97.851562 263.609375 99.003906 C 261.851562 100.160156 260.121094 101.398438 258.363281 102.695312 C 257.929688 103.011719 257.527344 103.332031 257.09375 103.648438 C 257.816406 102.78125 258.535156 101.917969 259.199219 101.023438 C 261.304688 98.023438 263.265625 95.082031 264.996094 92.085938 Z M 264.996094 92.085938 " fill-opacity="1" fill-rule="nonzero"/></g><g clip-path="url(#4de0d9767e)"><path fill="#9a2546" d="M 273.328125 189.808594 C 274.566406 189.261719 275.78125 188.570312 276.902344 187.761719 C 277.453125 187.359375 278.027344 186.925781 278.546875 186.464844 C 279.066406 186.003906 279.558594 185.511719 280.046875 184.992188 C 281.949219 183.003906 283.566406 180.464844 284.457031 177.699219 C 285.351562 174.929688 285.46875 171.929688 284.546875 169.394531 C 282.179688 170.660156 280.046875 171.816406 278.027344 173.113281 C 276.011719 174.410156 274.136719 175.9375 272.375 177.785156 C 269.40625 180.957031 267.101562 184.847656 265.917969 189.261719 C 262.714844 191.941406 259.3125 194.480469 255.765625 196.875 C 255.882812 196.730469 255.96875 196.613281 256.085938 196.46875 C 256.890625 195.316406 257.582031 194.132812 258.101562 192.894531 C 258.621094 191.65625 259.027344 190.386719 259.257812 189.117188 C 259.488281 187.847656 259.574219 186.550781 259.515625 185.308594 C 259.457031 184.042969 259.226562 182.800781 258.910156 181.589844 C 258.21875 179.167969 256.976562 176.917969 255.25 174.902344 C 253.289062 176.542969 251.757812 178.503906 250.492188 180.609375 C 249.882812 181.675781 249.308594 182.773438 248.875 183.957031 C 248.441406 185.136719 248.039062 186.289062 247.78125 187.53125 C 247.519531 188.769531 247.320312 189.980469 247.230469 191.25 C 247.144531 192.492188 247.175781 193.789062 247.316406 195.027344 C 247.550781 197.105469 248.097656 199.179688 249.046875 201.140625 C 246.625 202.554688 244.144531 203.910156 241.609375 205.179688 C 236.621094 207.6875 231.316406 209.992188 225.808594 212.070312 C 228.605469 209.851562 230.765625 207.109375 232.121094 204.113281 C 232.726562 202.757812 233.1875 201.402344 233.476562 199.988281 C 233.765625 198.574219 233.882812 197.160156 233.851562 195.75 C 233.765625 192.921875 233.042969 190.070312 231.71875 187.386719 C 229.066406 188.714844 226.730469 190.441406 224.710938 192.460938 C 222.722656 194.507812 221.019531 196.84375 219.75 199.410156 C 218.484375 201.949219 217.617188 204.746094 217.269531 207.570312 C 216.984375 209.992188 217.097656 212.472656 217.703125 214.894531 C 216.433594 215.300781 215.167969 215.703125 213.898438 216.078125 C 207.324219 218.039062 200.402344 219.742188 193.222656 221.152344 C 196.914062 219.191406 200 216.480469 202.160156 213.308594 C 203.085938 211.953125 203.863281 210.542969 204.46875 209.042969 C 205.074219 207.542969 205.507812 206.015625 205.765625 204.457031 C 206.257812 201.3125 206.054688 198.054688 205.160156 194.855469 C 198.613281 196.730469 193.105469 200.707031 189.300781 205.898438 C 185.753906 210.742188 183.707031 216.65625 184.3125 222.769531 C 182.8125 223.027344 181.285156 223.230469 179.8125 223.460938 C 179.007812 223.574219 178.226562 223.691406 177.421875 223.804688 C 175.835938 224.035156 174.21875 224.238281 172.632812 224.441406 C 171.738281 224.554688 170.875 224.671875 170.007812 224.757812 L 162.570312 225.566406 C 161.675781 225.652344 160.8125 225.738281 159.917969 225.824219 C 159.832031 225.824219 159.742188 225.855469 159.628906 225.855469 C 164.097656 224.09375 167.960938 221.414062 170.902344 218.125 C 173.324219 215.386719 175.113281 212.273438 176.152344 208.898438 C 177.191406 205.523438 177.449219 201.949219 176.902344 198.316406 C 169.171875 199.46875 162.308594 203.1875 157.378906 208.496094 C 154.929688 211.175781 152.96875 214.203125 151.699219 217.492188 C 150.574219 220.402344 149.996094 223.488281 150.082031 226.691406 C 142.816406 227.265625 135.464844 227.757812 128.339844 228.21875 C 127.449219 228.277344 126.582031 228.332031 125.6875 228.390625 C 130.820312 226.632812 135.347656 223.835938 138.894531 220.289062 C 140.308594 218.875 141.578125 217.316406 142.671875 215.703125 C 143.769531 214.058594 144.664062 212.328125 145.355469 210.542969 C 146.769531 206.9375 147.375 203.042969 147.054688 199.035156 C 138.117188 199.726562 129.957031 203.507812 124.160156 209.1875 C 118.710938 214.550781 115.453125 221.558594 115.597656 229.082031 C 108.789062 229.574219 101.929688 230.09375 95.152344 230.753906 L 94.691406 230.8125 C 93.652344 230.929688 92.613281 231.015625 91.574219 231.128906 C 92.816406 230.667969 94 230.179688 95.179688 229.601562 C 97.285156 228.5625 99.304688 227.441406 101.148438 226.113281 C 103.023438 224.785156 104.726562 223.375 106.28125 221.816406 C 109.398438 218.703125 111.875 215.097656 113.492188 211.203125 C 115.105469 207.285156 115.855469 203.074219 115.566406 198.71875 C 105.273438 199.410156 95.902344 203.738281 89.585938 210.195312 C 86.414062 213.398438 84.019531 217.144531 82.609375 221.097656 C 81.308594 224.699219 80.792969 228.507812 81.136719 232.371094 L 80.242188 232.484375 C 74.792969 233.207031 69.890625 233.984375 65.304688 234.90625 C 62.597656 235.457031 60.171875 236.003906 57.925781 236.609375 C 57.867188 236.636719 57.78125 236.636719 57.722656 236.667969 C 59.105469 235.917969 60.460938 235.140625 61.761719 234.300781 C 66.085938 231.5625 69.976562 228.363281 73.179688 224.730469 C 76.378906 221.097656 78.859375 217.117188 80.472656 212.761719 C 82.058594 208.4375 82.695312 203.851562 82.148438 199.179688 C 81.425781 199.265625 80.675781 199.355469 79.957031 199.46875 C 79.234375 199.585938 78.511719 199.726562 77.792969 199.902344 C 76.351562 200.21875 74.964844 200.566406 73.609375 200.96875 C 70.871094 201.804688 68.191406 202.898438 65.625 204.226562 C 60.546875 206.851562 55.992188 210.367188 52.617188 214.433594 C 49.214844 218.5 46.996094 223.054688 46.1875 227.671875 C 45.988281 228.824219 45.871094 229.976562 45.8125 231.128906 C 45.785156 232.285156 45.8125 233.4375 45.957031 234.589844 C 46.160156 236.4375 46.5625 238.253906 47.167969 240.039062 C 46.042969 240.472656 44.832031 240.964844 43.507812 241.539062 C 41.371094 242.492188 39.125 243.585938 36.671875 244.972656 L 37.96875 247.308594 C 40.335938 245.980469 42.496094 244.886719 44.574219 243.992188 C 45.84375 243.445312 47.023438 242.953125 48.121094 242.519531 C 48.871094 244.25 49.765625 245.894531 50.773438 247.453125 C 51.378906 248.402344 52.042969 249.324219 52.734375 250.21875 C 53.425781 251.113281 54.148438 251.980469 54.867188 252.785156 C 57.808594 256.074219 61.125 258.898438 64.671875 261.175781 C 68.21875 263.457031 71.996094 265.1875 76.234375 266.222656 C 78.339844 266.742188 80.589844 267.058594 82.925781 267.203125 C 84.109375 267.289062 85.320312 267.289062 86.53125 267.261719 C 87.136719 267.234375 87.742188 267.203125 88.347656 267.148438 C 88.953125 267.089844 89.585938 267.058594 90.191406 266.972656 C 89.644531 262.300781 88.085938 257.949219 85.695312 254.140625 C 83.328125 250.363281 80.070312 247.019531 76.207031 244.511719 C 72.34375 241.972656 67.84375 240.214844 62.941406 239.550781 C 61.472656 239.347656 59.972656 239.261719 58.445312 239.261719 C 58.5 239.234375 58.558594 239.234375 58.617188 239.203125 C 60.835938 238.628906 63.203125 238.082031 65.855469 237.53125 C 70.382812 236.609375 75.199219 235.832031 80.589844 235.140625 L 81.484375 235.023438 C 82.175781 238.859375 83.644531 242.375 85.636719 245.546875 C 87.886719 249.09375 90.828125 252.179688 94.257812 254.691406 C 101.121094 259.707031 110.003906 262.503906 119.894531 261.839844 C 119.605469 257.488281 118.308594 253.390625 116.230469 249.757812 C 114.15625 246.125 111.242188 242.894531 107.753906 240.300781 C 105.992188 239.003906 104.121094 237.847656 102.070312 236.898438 C 100.054688 235.945312 97.890625 235.140625 95.640625 234.5625 C 94.402344 234.246094 93.160156 233.984375 91.863281 233.785156 C 92.902344 233.667969 93.941406 233.582031 94.949219 233.464844 L 95.410156 233.410156 C 102.160156 232.746094 108.992188 232.226562 115.769531 231.734375 C 116.691406 239.203125 120.816406 245.722656 126.84375 250.304688 C 133.242188 255.179688 141.953125 257.890625 151.582031 257.140625 C 151.265625 253.132812 149.996094 249.382812 148.007812 246.039062 C 147 244.367188 145.816406 242.78125 144.488281 241.339844 C 143.164062 239.867188 141.664062 238.542969 140.050781 237.332031 C 136.011719 234.332031 131.167969 232.140625 125.832031 231.074219 C 126.726562 231.015625 127.621094 230.957031 128.484375 230.898438 C 135.636719 230.4375 142.992188 229.949219 150.285156 229.371094 C 150.71875 232.542969 151.785156 235.515625 153.429688 238.195312 C 155.273438 241.222656 157.8125 243.933594 160.925781 246.039062 C 167.097656 250.335938 175.605469 252.410156 184.773438 251.085938 C 184.226562 247.453125 182.785156 244.105469 180.738281 241.195312 C 178.660156 238.28125 175.980469 235.714844 172.835938 233.667969 C 169.058594 231.1875 164.644531 229.429688 159.886719 228.5625 C 160.003906 228.5625 160.089844 228.535156 160.207031 228.535156 C 161.097656 228.449219 161.964844 228.363281 162.859375 228.277344 L 170.355469 227.46875 C 171.25 227.351562 172.113281 227.238281 173.007812 227.152344 C 174.59375 226.949219 176.238281 226.746094 177.851562 226.515625 C 178.660156 226.402344 179.4375 226.285156 180.246094 226.171875 C 181.746094 225.96875 183.273438 225.738281 184.800781 225.480469 C 186.15625 231.476562 190.136719 236.464844 195.875 239.523438 C 198.960938 241.136719 202.507812 242.234375 206.371094 242.578125 C 210.234375 242.925781 214.359375 242.605469 218.539062 241.394531 C 217.617188 238.195312 215.917969 235.371094 213.695312 232.976562 C 212.570312 231.792969 211.332031 230.699219 209.976562 229.71875 C 208.621094 228.738281 207.179688 227.871094 205.652344 227.121094 C 202.074219 225.363281 198.066406 224.238281 193.855469 223.835938 C 201.125 222.394531 208.128906 220.664062 214.820312 218.671875 C 216.117188 218.296875 217.386719 217.894531 218.683594 217.492188 C 219.636719 219.828125 220.992188 221.902344 222.777344 223.632812 C 224.855469 225.679688 227.480469 227.238281 230.476562 228.246094 C 233.476562 229.226562 236.851562 229.660156 240.367188 229.34375 C 243.914062 229.054688 247.605469 228.046875 251.152344 226.285156 C 249.828125 223.605469 247.835938 221.414062 245.472656 219.652344 C 244.289062 218.789062 242.992188 218.011719 241.636719 217.375 C 240.28125 216.742188 238.839844 216.195312 237.371094 215.761719 C 234.054688 214.808594 230.507812 214.40625 226.875 214.609375 C 232.496094 212.503906 237.890625 210.167969 242.964844 207.601562 C 245.558594 206.304688 248.066406 204.917969 250.546875 203.476562 C 251.789062 205.265625 253.34375 206.734375 255.160156 207.859375 C 256.257812 208.550781 257.46875 209.070312 258.738281 209.503906 C 260.007812 209.90625 261.363281 210.195312 262.773438 210.3125 C 264.1875 210.425781 265.65625 210.425781 267.128906 210.226562 C 268.628906 210.023438 270.15625 209.707031 271.65625 209.15625 C 274.710938 208.148438 277.710938 206.417969 280.449219 204.113281 C 278.71875 202.09375 276.527344 200.652344 274.105469 199.671875 C 272.894531 199.179688 271.628906 198.835938 270.328125 198.574219 C 269.003906 198.316406 267.675781 198.140625 266.320312 198.113281 C 264.964844 198.054688 263.554688 198.113281 262.167969 198.257812 C 260.785156 198.402344 259.371094 198.660156 257.988281 199.007812 C 257.816406 199.066406 257.640625 199.09375 257.441406 199.152344 C 261.074219 196.699219 264.5625 194.105469 267.847656 191.335938 C 269.609375 191.136719 271.511719 190.617188 273.328125 189.808594 Z M 273.328125 189.808594 " fill-opacity="1" fill-rule="nonzero"/></g></svg>